<svg width="469" height="240" viewBox="0 0 469 240" fill="none" xmlns="http://www.w3.org/2000/svg">
<path d="M36.8 182C26.1333 182 18.0667 179 12.6 173C7.13333 166.867 4.4 158.133 4.4 146.8V138.8H25.2V148.4C25.2 157.467 29 162 36.6 162C40.3333 162 43.1333 160.933 45 158.8C47 156.533 48 152.933 48 148C48 142.133 46.6667 137 44 132.6C41.3333 128.067 36.4 122.667 29.2 116.4C20.1333 108.4 13.8 101.2 10.2 94.8C6.6 88.2667 4.8 80.9333 4.8 72.8C4.8 61.7333 7.6 53.2 13.2 47.2C18.8 41.0667 26.9333 38 37.6 38C48.1333 38 56.0667 41.0667 61.4 47.2C66.8667 53.2 69.6 61.8667 69.6 73.2V79H48.8V71.8C48.8 67 47.8667 63.5333 46 61.4C44.1333 59.1333 41.4 58 37.8 58C30.4667 58 26.8 62.4667 26.8 71.4C26.8 76.4667 28.1333 81.2 30.8 85.6C33.6 90 38.6 95.3333 45.8 101.6C55 109.6 61.3333 116.867 64.8 123.4C68.2667 129.933 70 137.6 70 146.4C70 157.867 67.1333 166.667 61.4 172.8C55.8 178.933 47.6 182 36.8 182ZM147.414 193C137.414 193 131.281 188.533 129.014 179.6C124.881 181.2 120.014 182 114.414 182C103.614 182 95.3474 178.933 89.6141 172.8C83.8807 166.667 81.0141 158 81.0141 146.8V73.2C81.0141 62 83.8807 53.3333 89.6141 47.2C95.3474 41.0667 103.614 38 114.414 38C125.214 38 133.481 41.0667 139.214 47.2C144.947 53.3333 147.814 62 147.814 73.2V146.8C147.814 156.133 145.747 163.8 141.614 169.8C142.414 171.133 143.414 172 144.614 172.4C145.814 172.8 147.547 173 149.814 173H153.214V193H147.414ZM114.414 162C122.014 162 125.814 157.4 125.814 148.2V71.8C125.814 62.6 122.014 58 114.414 58C106.814 58 103.014 62.6 103.014 71.8V148.2C103.014 157.4 106.814 162 114.414 162ZM194.692 182C184.026 182 175.892 179 170.292 173C164.692 166.867 161.892 158.133 161.892 146.8V40H183.892V148.4C183.892 153.2 184.826 156.667 186.692 158.8C188.692 160.933 191.492 162 195.092 162C198.692 162 201.426 160.933 203.292 158.8C205.292 156.667 206.292 153.2 206.292 148.4V40H227.492V146.8C227.492 158.133 224.692 166.867 219.092 173C213.492 179 205.359 182 194.692 182ZM259.77 40H289.57L312.37 180H290.37L286.37 152.2V152.6H261.37L257.37 180H236.97L259.77 40ZM283.77 133.6L273.97 64.4H273.57L263.97 133.6H283.77ZM323.044 40H355.644C366.977 40 375.244 42.6667 380.444 48C385.644 53.2 388.244 61.2667 388.244 72.2V80.8C388.244 95.3333 383.444 104.533 373.844 108.4V108.8C379.177 110.4 382.91 113.667 385.044 118.6C387.31 123.533 388.444 130.133 388.444 138.4V163C388.444 167 388.577 170.267 388.844 172.8C389.11 175.2 389.777 177.6 390.844 180H368.444C367.644 177.733 367.11 175.6 366.844 173.6C366.577 171.6 366.444 168 366.444 162.8V137.2C366.444 130.8 365.377 126.333 363.244 123.8C361.244 121.267 357.71 120 352.644 120H345.044V180H323.044V40ZM353.044 100C357.444 100 360.71 98.8667 362.844 96.6C365.11 94.3333 366.244 90.5333 366.244 85.2V74.4C366.244 69.3333 365.31 65.6667 363.444 63.4C361.71 61.1333 358.91 60 355.044 60H345.044V100H353.044ZM403.708 40H463.708V60H425.708V97H455.908V117H425.708V160H463.708V180H403.708V40Z" fill="#141414"/>
</svg>
